<svg id="visual" viewBox="0 0 960 540" width="960" height="540" xmlns="http://www.w3.org/2000/svg" xmlns:xlink="http://www.w3.org/1999/xlink" version="1.1"><rect x="0" y="0" width="960" height="540" fill="#fafcff"></rect><path d="M0 418L20 417C40 416 80 414 120 430.3C160 446.7 200 481.3 240 496.2C280 511 320 506 360 500.3C400 494.7 440 488.3 480 477.7C520 467 560 452 600 449.8C640 447.7 680 458.3 720 447.3C760 436.3 800 403.7 840 391.8C880 380 920 389 940 393.5L960 398L960 541L940 541C920 541 880 541 840 541C800 541 760 541 720 541C680 541 640 541 600 541C560 541 520 541 480 541C440 541 400 541 360 541C320 541 280 541 240 541C200 541 160 541 120 541C80 541 40 541 20 541L0 541Z" fill="#e0f2fe" stroke-linecap="round" stroke-linejoin="miter"></path></svg>